<svg width="32" height="32" viewBox="0 0 32 32" fill="none" xmlns="http://www.w3.org/2000/svg">
<path d="M20.3537 25.6463C20.4476 25.7401 20.5003 25.8674 20.5003 26C20.5003 26.1327 20.4476 26.26 20.3537 26.3538C20.2599 26.4476 20.1327 26.5003 20 26.5003C19.8673 26.5003 19.7401 26.4476 19.6462 26.3538L9.64625 16.3538C9.59976 16.3073 9.56288 16.2522 9.53772 16.1915C9.51255 16.1308 9.4996 16.0657 9.4996 16C9.4996 15.9343 9.51255 15.8693 9.53772 15.8086C9.56288 15.7479 9.59976 15.6927 9.64625 15.6463L19.6462 5.64628C19.6927 5.59983 19.7479 5.56298 19.8085 5.53784C19.8692 5.5127 19.9343 5.49976 20 5.49976C20.0657 5.49976 20.1307 5.5127 20.1914 5.53784C20.2521 5.56298 20.3073 5.59983 20.3537 5.64628C20.4002 5.69274 20.4371 5.74789 20.4622 5.80859C20.4873 5.86928 20.5003 5.93434 20.5003 6.00003C20.5003 6.06573 20.4873 6.13079 20.4622 6.19148C20.4371 6.25218 20.4002 6.30733 20.3537 6.35378L10.7075 16L20.3537 25.6463Z" fill="#343330"/>
</svg>
